<?xml version="1.0" encoding="utf-8"?>
<!-- Generator: Adobe Illustrator 15.1.0, SVG Export Plug-In . SVG Version: 6.00 Build 0)  -->
<!DOCTYPE svg PUBLIC "-//W3C//DTD SVG 1.1//EN" "http://www.w3.org/Graphics/SVG/1.1/DTD/svg11.dtd">
<svg version="1.1" id="Layer_1" xmlns="http://www.w3.org/2000/svg" xmlns:xlink="http://www.w3.org/1999/xlink" x="0px" y="0px"
	 width="841.89px" height="595.28px" viewBox="0 0 841.89 595.28" enable-background="new 0 0 841.89 595.28" xml:space="preserve">
<g>
	<path fill="#FFFFFF" d="M339.831,319.827l-0.148-0.149c-0.047,0.01-0.096,0.02-0.145,0.028c-0.038,0.07-0.073,0.137-0.111,0.207
		C339.562,319.885,339.697,319.853,339.831,319.827z"/>
	<path fill="#FFFFFF" d="M339.426,319.913c0.038-0.07,0.073-0.137,0.111-0.207c-2.006,0.35-4.017,0.746-6.03,1.176
		c-0.082,0.161-0.164,0.323-0.247,0.485C335.33,320.817,337.386,320.33,339.426,319.913z"/>
	<path fill="#FFFFFF" d="M395.382,345.899c0.74,0,1.626-0.336,2.647-1.007h-4.417C393.979,345.556,394.563,345.899,395.382,345.899z
		"/>
	<path fill="#FFFFFF" d="M384.864,345.751c-0.297,0.792,0.049,1.581,1.037,2.372c0.986,0.79,2.074,1.235,3.259,1.332
		c1.185,0.101,2.124,0.052,2.814-0.147c0.593-0.197,1.185-0.494,1.778-0.891c1.974,0,4.096-1.085,6.369-3.257
		c0.1-0.083,0.206-0.182,0.306-0.267h-2.397c-1.021,0.672-1.907,1.008-2.647,1.008c-0.819,0-1.403-0.345-1.771-1.008h-8.535
		C385.008,345.178,384.927,345.47,384.864,345.751z"/>
	<path fill="#FFFFFF" d="M427.232,350.344c0.986,0,2.122-0.394,3.408-1.185c2.066-1.214,4.282-2.648,6.622-4.267h-13.72
		c-0.004,0.088-0.015,0.179-0.015,0.266C423.528,348.616,424.762,350.344,427.232,350.344z"/>
	<path fill="#FFFFFF" d="M497.746,348.714c2.862,0.396,6.073-0.148,9.629-1.63c1.439-0.6,2.867-1.335,4.289-2.193h-20.807
		C492.698,347.053,494.991,348.336,497.746,348.714z"/>
</g>
<g>
	<rect x="56.574" y="58.074" display="none" fill="#99FFB8" width="678.5" height="387.714"/>
	<polygon fill="#FFFFFF" points="420.845,52.9 495.762,204.705 663.291,229.047 542.071,347.214 570.683,514.062 420.845,435.293 
		271.002,514.062 299.618,347.214 178.397,229.047 345.924,204.705 	"/>
	<path fill="#FFFFFF" d="M550.253,176.831c-7.756-13.407-6.344-29.285-19.044-40.22c-13.062-5.998-27.879-13.757-43.748-16.229
		c-1.771-3.527-2.831-8.468-6.712-10.937c-14.104,1.766-28.921,0-39.506-9.526c-11.996-3.88-25.051,0.352-36.694-4.235v1.06
		c-7.06,1.765-12.348,7.057-20.11,6.701c-4.938,0.709-12.704,6.704-16.23-0.352c-3.526-1.411-8.113-1.056-10.583,1.413
		c-2.466,6.705-10.937,11.289-10.587,19.047c-4.233,0.355-3.878,4.944-4.233,8.47c-2.819,4.233-7.405,8.114-12.349,9.529
		c-0.701,3.174-2.112,5.994-4.231,8.11c-12.7,1.412-3.528,14.112-6.703,21.172l-2.824,1.765
		c-2.115,10.934-11.29,18.697-15.521,28.224c-2.822,5.995-0.358,13.762-7.061,17.994c3.528,0.699,1.061,4.232,2.47,6.7
		c0.356,2.472,4.591,2.472,3.18,5.645c-7.061,8.466-3.18,21.868-0.713,31.751c0.358,11.643,19.055,12.705,14.469,26.111
		c6.345,6.702,6.701,16.585,9.173,25.402c3.175,11.283-10.586,26.459,3.879,31.397l0.351-0.363l1.062-2.111l-1.062-1.055
		c1.416-16.228,2.827-31.749,2.114-46.924c2.474,0.355,5.294-2.114,7.764-2.823c3.177,0.358,5.293-1.41,8.117,1.414
		c5.289,2.47,10.58,2.823,15.52,1.409c-4.228-5.998-14.459-5.647-21.165-5.998v-1.761h-1.414c-4.231-0.352-6.345,5.645-9.52,5.645
		c-1.416-7.058,1.411-13.054,7.053-16.587c1.409,0.707,3.531,2.12,4.586,1.06l-0.357-0.701l3.53-1.062
		c3.527-4.583,7.414-8.113,12.699-11.639c2.827,0,6.002,2.47,8.464,1.055c1.064,0,1.417,1.416,1.064,2.472
		c2.818-1.765,5.641-1.056,8.469-1.409l-2.121,2.817c0.355,0.706,1.409,0,1.77,0.359c0.702-0.711,1.76-1.411,1.76-2.115
		c1.061,0.705,4.235,2.115,5.648,1.76c-1.068,2.825,0,5.642,2.113,7.764l1.058-2.823c1.768-0.35,1.768,1.763,2.119,2.468
		c2.111,1.41,3.525-1.053,5.292-2.114c5.293-0.701,10.581-2.466,15.52-3.88c6.001,2.473,11.643-0.352,17.643-2.115
		c1.053,1.766,2.467-1.76,4.231-1.054c4.59,4.23,7.758,10.223,14.11,12.341l-1.758,0.356c1.41,2.118,3.872-1.061,5.289,1.056
		c-0.358,0.354-0.71,0.704-1.062,0.704c0,0,0.352,6.504,3.172,7.059c-2.11-0.359-5.644,2.819-5.644,2.819
		c-2.471-1.41-19.402-6.349-26.109-6.349c-1.409,0.359-3.171,3.17-3.874,1.058c-6.001,2.475-16.583,1.412-19.054,7.055
		c1.414-0.35,2.117,3.529,3.879,1.06c9.173,1.412,16.584-6.346,26.465-3.53c3.877,2.826,9.876,1.41,13.752,4.235
		c2.471,0-0.697,3.883,3.184,3.883l-0.357-1.765h1.411c2.118,1.063-0.354,2.119-0.703,2.82c-4.945-0.701-11.643-1.76-16.936-2.115
		v0.705c1.054,0.707,3.179-0.35,3.877,0.353c-2.823,1.41,1.767,0.705,0.355,2.116c-8.817-1.764-19.402-1.411-25.399,6.351
		l7.759-4.241c4.232-3.17,4.585,3.187,7.05,4.949c4.944,6.344,9.881-5.299,13.76,0.35c0,0-6.349,4.584-3.17,5.294
		c0,0,3.836,1.18,4.944,0.355c-1.045-5.138,26.102-16.231,28.575-10.585c0,0,2.827-0.713,3.877-0.357c0,0,1.054,4.238,1.409,4.585
		c-1.054,1.063-3.881,1.77-3.179,3.534c0.367,1.762,0.367,3.525,0.367,3.525l-7.42,20.467l-1.397,4.939l-0.365,10.579
		c-0.7,2.122-6.699,3.18-6.699,3.18c0,2.465,0.353,4.236,0.353,4.236l4.931,11.288c1.416,0.347-7.351,38.83-51.152,42.691
		c-4.23,0.699-16.929,0.346-18.695,3.52c9.87,2.473,16.936,10.939,27.165,11.997c0,0,8.466-0.355,12.348-0.702
		c12.694,2.114,20.107-10.234,31.046-13.764c2.464,0.707,1.763-3.175,4.585-1.762c4.232-1.413,11.644-4.582,15.522-1.764
		c9.178-7.771,12.352-19.757,22.585-26.109c0,0,4.937,0.703,5.284,1.772c0,0-2.473-11.654-7.756-21.168
		c-2.115-1.067-0.358-3.177,1.059-3.177c2.462-13.41,17.642-22.225,24.692-34.578c5.998-13.407,14.457-26.106,25.053-37.743
		c7.4-14.468,5.641-32.812,10.583-48.333C560.142,219.515,567.191,193.766,550.253,176.831z M338.932,275.618
		c-3.529-1.063,1.056-3.53,0.698-5.647c1.767-1.062,2.475-2.827,3.888-3.526C341.755,269.263,341.755,272.435,338.932,275.618z
		 M419.368,306.663h0.355l1.412,1.402L419.368,306.663z M463.465,301.718c0.706-0.7,1.056-2.465-0.703-2.465
		c-0.702,0-1.765-0.354-2.472,0.354c0,0.348,0.36,0.701,0.36,0.701h1.049c0.714,0-2.47,0.71-3.165-0.701
		c0.351,0.348,0.695,0.701,1.051,0.348l0.355-0.348l-0.711-0.708c2.117-1.765,4.946,0,7.062,1.409L463.465,301.718z
		 M510.389,322.531c-1.767-0.702-0.353-2.114,0-3.179c-1.404-4.583-2.817-8.464-3.533-13.045c3.533-1.414,2.82,2.467,3.533,3.525
		c0.698,2.116,1.057,4.937,1.755,8.471L510.389,322.531z M517.798,319.006l-1.415,1.759c1.767-6.34-2.461-15.871,2.117-22.57
		C522.739,303.841,521.326,313.007,517.798,319.006z"/>
	<polygon fill="#FFFFFF" points="557.093,164.345 573.201,169.799 586.832,159.635 586.607,176.632 600.477,186.45 584.251,191.492 
		579.21,207.724 569.385,193.846 552.394,194.063 562.559,180.435 	"/>
	<polygon fill="#FFFFFF" points="523.807,109.881 539.054,102.356 541.493,85.534 553.374,97.708 570.113,94.835 562.205,109.881 
		570.113,124.927 553.374,122.049 541.493,134.223 539.054,117.4 	"/>
	<polygon fill="#FFFFFF" points="450.652,93.076 466.743,98.533 480.38,88.371 480.158,105.365 494.048,115.186 477.807,120.229 
		472.763,136.458 462.95,122.576 445.951,122.797 456.118,109.17 	"/>
	<polygon fill="none" points="420.845,52.9 495.762,204.705 663.291,229.047 542.071,347.214 570.683,514.062 420.845,435.293 
		271.002,514.062 299.618,347.214 178.397,229.047 345.924,204.705 	"/>
	<path fill="#1A171B" d="M550.253,176.831c-7.756-13.407-6.344-29.285-19.044-40.22c-13.062-5.998-27.879-13.757-43.748-16.229
		c-1.771-3.527-2.831-8.468-6.712-10.937c-14.104,1.766-28.921,0-39.506-9.526c-11.996-3.88-25.051,0.352-36.694-4.235v1.06
		c-7.055,1.765-12.346,7.057-20.11,6.701c-4.938,0.709-12.704,6.708-16.23-0.352c-3.526-1.409-8.113-1.056-10.583,1.413
		c-2.466,6.705-10.937,11.289-10.587,19.047c-4.233,0.355-3.878,4.944-4.233,8.47c-2.819,4.233-7.405,8.114-12.349,9.529
		c-0.701,3.174-2.112,5.994-4.231,8.11c-12.7,1.412-3.528,14.112-6.703,21.172l-2.824,1.765
		c-2.115,10.934-11.29,18.697-15.521,28.224c-2.822,5.995-0.358,13.762-7.061,17.994c3.528,0.699,1.061,4.232,2.47,6.7
		c0.356,2.472,4.591,2.472,3.18,5.645c-7.061,8.466-3.18,21.868-0.713,31.751c0.358,11.643,19.055,12.705,14.469,26.111
		c6.345,6.702,6.701,16.585,9.173,25.402c3.175,11.283-10.586,26.459,3.879,31.397l0.351-0.363l1.062-2.111l-1.062-1.055
		c1.416-16.228,2.827-31.749,2.114-46.924c2.474,0.355,5.294-2.114,7.764-2.823c3.177,0.358,5.293-1.41,8.117,1.414
		c5.289,2.47,10.58,2.823,15.52,1.409c-4.228-5.998-14.459-5.647-21.165-5.998v-1.761h-1.414c-4.231-0.352-6.345,5.645-9.52,5.645
		c-1.416-7.058,1.411-13.054,7.053-16.587c1.409,0.707,3.531,2.12,4.586,1.06l-0.357-0.701l3.53-1.062
		c3.527-4.583,7.414-8.113,12.699-11.639c2.827,0,6.002,2.47,8.469,1.055c1.06,0,1.413,1.416,1.06,2.472
		c2.818-1.765,5.641-1.056,8.467-1.409l-2.118,2.817c0.355,0.706,1.409,0,1.77,0.359c0.702-0.711,1.76-1.411,1.76-2.115
		c1.061,0.705,4.235,2.115,5.648,1.76c-1.058,2.825,0,5.642,2.113,7.764l1.061-2.823c1.765-0.35,1.765,1.763,2.117,2.468
		c2.111,1.41,3.529-1.053,5.292-2.114c5.288-0.701,10.579-2.466,15.52-3.88c6.001,2.473,11.643-0.352,17.643-2.115
		c1.053,1.766,2.467-1.76,4.231-1.054c4.59,4.23,7.758,10.223,14.11,12.341l-1.758,0.356c1.41,2.118,3.872-1.061,5.289,1.056
		c-0.358,0.354-0.71,0.704-1.062,0.704c0,0,0.352,6.504,3.172,7.059c-2.11-0.359-5.644,2.819-5.644,2.819
		c-2.471-1.41-19.402-6.349-26.109-6.349c-1.409,0.359-3.171,3.17-3.874,1.058c-6.001,2.475-16.583,1.412-19.054,7.055
		c1.414-0.35,2.117,3.529,3.879,1.06c9.173,1.412,16.584-6.346,26.465-3.53c3.877,2.826,9.876,1.41,13.752,4.235
		c2.471,0-0.697,3.883,3.184,3.883l-0.357-1.765h1.411c2.118,1.063-0.354,2.119-0.703,2.82c-4.945-0.701-11.643-1.76-16.936-2.115
		v0.705c1.054,0.707,3.179-0.35,3.877,0.353c-2.823,1.41,1.767,0.705,0.355,2.116c-8.817-1.764-19.402-1.411-25.399,6.351
		l7.759-4.241c4.232-3.17,4.585,3.187,7.05,4.949c4.944,6.344,9.881-5.299,13.76,0.35c0,0-6.349,4.584-3.17,5.294
		c0,0,3.836,1.18,4.944,0.355c-1.045-5.138,26.102-16.231,28.575-10.585c0,0,2.827-0.713,3.877-0.357c0,0,1.054,4.238,1.409,4.585
		c-1.054,1.063-3.881,1.77-3.179,3.534c0.367,1.762,0.367,3.525,0.367,3.525l-7.42,20.467l-1.397,4.939l-0.365,10.579
		c-0.7,2.122-6.699,3.18-6.699,3.18c0,2.465,0.353,4.236,0.353,4.236l4.931,11.288c1.416,0.347-7.351,38.83-51.152,42.691
		c-4.23,0.699-16.929,0.346-18.695,3.52c9.878,2.473,16.936,10.939,27.165,11.997c0,0,8.466-0.355,12.348-0.702
		c12.694,2.114,20.107-10.234,31.046-13.764c2.464,0.707,1.763-3.175,4.585-1.762c4.232-1.413,11.644-4.582,15.522-1.764
		c9.178-7.771,12.352-19.757,22.585-26.109c0,0,4.937,0.703,5.284,1.772c0,0-2.473-11.654-7.756-21.168
		c-2.115-1.067-0.358-3.177,1.059-3.177c2.462-13.41,17.642-22.225,24.692-34.578c5.998-13.407,14.457-26.106,25.053-37.743
		c7.4-14.468,5.641-32.812,10.583-48.333C560.142,219.515,567.191,193.766,550.253,176.831z M338.932,275.618
		c-3.529-1.063,1.056-3.53,0.698-5.647c1.767-1.062,2.475-2.827,3.888-3.526C341.755,269.263,341.755,272.435,338.932,275.618z
		 M419.368,306.663h0.355l1.412,1.402L419.368,306.663z M463.465,301.718c0.706-0.7,1.056-2.465-0.703-2.465
		c-0.702,0-1.765-0.354-2.472,0.354c0,0.348,0.36,0.701,0.36,0.701h1.049c0.714,0-2.47,0.71-3.165-0.701
		c0.351,0.348,0.695,0.701,1.051,0.348l0.355-0.348l-0.711-0.708c2.117-1.765,4.946,0,7.062,1.409L463.465,301.718z
		 M510.389,322.531c-1.767-0.702-0.353-2.114,0-3.179c-1.404-4.583-2.817-8.464-3.533-13.045c3.533-1.414,2.82,2.467,3.533,3.525
		c0.698,2.116,1.057,4.937,1.755,8.471L510.389,322.531z M517.798,319.006l-1.415,1.759c1.767-6.34-2.461-15.871,2.117-22.57
		C522.739,303.841,521.326,313.007,517.798,319.006z"/>
	<path fill="#1A171B" d="M434.893,271.384c0.013,0.007,0.026,0.005,0.038,0.02c-0.01-0.02-0.01-0.035-0.021-0.049
		C434.905,271.369,434.905,271.369,434.893,271.384z"/>
	<polygon fill="#1A171B" points="325.169,344.759 325.666,344.512 325.527,344.406 	"/>
	<path fill="#1A171B" d="M413.372,298.194c-4.235,0.355-8.467,2.468-11.994,5.646c-2.47-0.711,1.407-0.711,0-2.471
		C405.254,298.55,409.137,298.194,413.372,298.194z"/>
	<path fill="#1A171B" d="M394.676,299.954c-1.77,2.823-1.409,5.65-4.242,6.354C390.088,304.191,391.846,299.606,394.676,299.954z"/>
	<path fill="#1A171B" d="M364.686,305.607c-1.407-2.128-3.176-2.478-5.648-3.179l0.712-0.707
		C360.447,304.191,364.686,302.077,364.686,305.607z"/>
	<path fill="#1A171B" d="M337.522,302.077c-0.706,1.05-0.706,2.114-1.063,3.172c8.118-1.411,19.054-5.646,25.757,2.113
		c-2.116-1.408-4.585,1.769-4.585,3.178c-0.355,0.349-0.704,0.707-1.057,0.349c-1.41-1.409,3.527-2.463,1.057-4.226l-4.936,4.226
		c0-0.349,0.355-0.349,0.701-0.698l-3.174-1.765c-0.355-1.419,4.235-1.763,1.412-3.884c-2.114,0.707-2.823,1.766-2.465,3.884
		c-1.061,2.463,2.465,1.407,2.112,3.523c-5.29-0.35-1.764-8.822-8.113-6.342c-3.879,1.404-3.175,6.342-6.351,7.051
		c-0.357-1.407-2.828-2.114-4.239-2.821C336.103,307.368,332.229,302.425,337.522,302.077z"/>
	<path fill="#1A171B" d="M403.496,343.348c0.355,3.177,0,6.354-3.176,7.763c-7.763,1.414-16.225,5.997-23.28,3.881
		c3.879-4.937,10.226-7.76,16.931-5.998l4.942-3.171c-1.766-1.768,1.762-3.887,1.412-5.651
		C402.082,340.171,402.787,341.936,403.496,343.348z"/>
	<path fill="#1A171B" d="M420.293,370.033c-4.31,2.868-10.418,3.589-13.652,7.534c-0.718,0-1.8-0.357-2.159,0.37
		c0.718,2.509,2.88-1.079,4.31,1.432c-8.617,6.828-21.558,10.781-31.251,7.189c3.95-2.155,12.571,1.074,14.728-2.874h0.362
		l-0.362-1.439l0.721,0.722c-0.363-4.312,5.75-1.8,7.188-5.399c1.796,0,2.152-1.789,3.23-3.227l-10.418-1.079
		c1.435-1.795,5.392-1.795,7.188-3.229l4.666-0.729l-0.36-0.355c0.718-0.357,6.467,1.437,9.343-0.357l0.721-1.44L420.293,370.033z"
		/>
	<path fill="#1A171B" d="M360.652,371.102c-0.718,1.082-2.517,0.723-3.592,0.723l1.433-3.232
		C359.218,369.305,361.369,370.033,360.652,371.102z"/>
	<path fill="#1A171B" d="M388.316,371.467c-1.437,2.155-4.675,2.514-7.184,3.592c-0.723-0.718-0.723-1.437-1.442-1.797
		C381.848,370.386,385.803,373.622,388.316,371.467z"/>
	<path fill="#1A171B" d="M371.433,373.622c-1.797,0-5.391,0.719-6.825-1.798C366.76,373.622,368.916,372.184,371.433,373.622z"/>
	<polygon fill="#FFFFFF" points="512.361,111.897 526.619,140.788 558.49,145.417 535.429,167.896 540.871,199.638 512.361,184.651 
		483.863,199.638 489.298,167.896 466.234,145.417 498.113,140.788 	"/>
	<polygon fill="#FFFFFF" points="557.093,164.345 573.201,169.799 586.832,159.635 586.607,176.632 600.477,186.45 584.251,191.492 
		579.21,207.724 569.385,193.846 552.394,194.063 562.559,180.435 	"/>
	<polygon fill="#FFFFFF" points="523.807,109.881 539.054,102.359 541.493,85.537 553.374,97.708 570.113,94.835 562.205,109.881 
		570.113,124.927 553.374,122.054 541.493,134.223 539.054,117.4 	"/>
	<polygon fill="#FFFFFF" points="450.652,93.076 466.743,98.533 480.38,88.371 480.158,105.365 494.048,115.18 477.807,120.229 
		472.763,136.458 462.95,122.576 445.951,122.797 456.118,109.17 	"/>
</g>
</svg>
