<?xml version="1.0" encoding="utf-8"?>
<!-- Generator: Adobe Illustrator 15.1.0, SVG Export Plug-In . SVG Version: 6.00 Build 0)  -->
<!DOCTYPE svg PUBLIC "-//W3C//DTD SVG 1.1//EN" "http://www.w3.org/Graphics/SVG/1.1/DTD/svg11.dtd">
<svg version="1.1" id="Layer_1" xmlns="http://www.w3.org/2000/svg" xmlns:xlink="http://www.w3.org/1999/xlink" x="0px" y="0px"
	 width="841.89px" height="595.28px" viewBox="0 0 841.89 595.28" enable-background="new 0 0 841.89 595.28" xml:space="preserve">
<g>
	<g>
		<path fill="#FFFFFF" d="M146.895,309.143c0,24.046-12.4,47.201-40.999,47.201c-25.434,0-43.531-13.921-43.531-47.452
			c0-33.536,19.614-45.556,43.406-45.556C129.56,263.335,146.895,279.912,146.895,309.143z M88.561,310.153
			c0,14.807,9.111,20.883,17.083,20.883c7.845,0,14.804-5.189,14.804-21.01c0-13.032-4.303-23.155-14.931-23.155
			C92.863,286.871,88.561,296.616,88.561,310.153z"/>
		<path fill="#FFFFFF" d="M193.011,265.612c0,0.128,0.884,18.477,0.127,18.729c-0.758,0.253-10.376,1.391-10.376,1.391
			c-1.265,9.11-2.024,49.099-1.899,49.099c0.128,0,12.908-0.255,13.034-0.507c0.127-0.256,4.302-15.82,4.302-16.323
			c0-0.507,16.451,1.897,16.829,2.149c0.383,0.253,0.761,34.168,0.383,34.168c-0.383,0-66.436,1.139-66.436-0.252
			s-0.507-18.221-0.253-18.477c0.255-0.253,8.478-0.379,8.731-0.633c0.252-0.252,0.505-38.342,1.266-50.363
			c0-0.633-7.594,0.127-7.845,0c-0.253-0.127-1.647-19.108-0.381-19.867C151.253,264.347,193.011,265.486,193.011,265.612z"/>
		<path fill="#FFFFFF" d="M279.443,269.028c0.506-2.655,0.886-7.464,1.013-7.464c0.253,0,19.867,3.164,20.122,3.543
			c0.251,0.378-2.278,30.875-2.278,30.875l-21.513,1.771c-0.886-3.669-3.291-12.021-13.919-12.021
			c-11.517,0-18.096,12.909-18.224,25.815c-0.123,11.391,7.215,23.79,19.615,23.79c8.606,0,9.746-7.973,9.746-7.973l-10.632,0.128
			c-2.405-2.533-1.518-17.718-1.518-17.718c4.302-1.517,41.505,1.393,41.505,1.393c2.025,9.112,3.67,39.479,3.67,42.897
			c0,0.508-20.372,1.391-20.372,1.391l-1.266-8.604c-3.039,4.177-12.023,11.134-22.777,11.134c-27.84,0-44.038-17.463-44.417-46.314
			c-0.38-34.924,22.903-47.705,44.164-47.833C270.589,263.84,276.029,266.246,279.443,269.028z"/>
		<path fill="#FFFFFF" d="M312.816,355.584c-1.77-3.796-1.77-18.222-1.77-18.222l8.352-2.023
			c5.567-31.255,15.69-69.853,15.69-69.853c4.556-1.768,25.688,0.763,25.688,0.763l24.675,69.723h7.341v18.603
			c0,0-34.04,1.647-35.433,0.884c-1.265-0.884-2.531-17.844-1.771-18.096c0.76-0.381,6.453-0.381,6.453-0.381l-3.415-10.248
			l-17.083-0.254l-1.645,8.353l8.605,1.14c0,0,1.391,17.844,1.012,17.844L312.816,355.584z M348.628,293.83l-4.935,17.085
			l11.262-0.633L348.628,293.83z"/>
		<path fill="#FFFFFF" d="M439.096,260.425c0,0,13.161-0.507,19.361,2.149c0.632,0.254-1.521,24.675-1.521,28.726
			c0,1.897-19.739,1.771-19.739,1.264c-0.633-7.338-4.938-10.12-8.859-10.12c-2.279,0-6.961,1.135-6.961,6.198
			c0,4.555,9.49,7.34,18.857,12.907c11.263,6.58,20.75,13.286,20.75,28.852c0,14.301-12.399,25.056-25.054,25.056
			c-13.034,0-17.717-4.934-19.615-7.088c-0.253,2.787-0.506,7.85-0.633,7.85c-0.631-0.256-19.108-1.143-19.108-1.143
			c-0.251-2.783-0.251-25.561-0.251-32.141c8.604-1.897,17.334-2.277,19.866-1.897c2.277,8.606,7.464,13.162,11.517,13.162
			c3.67,0,6.961-2.026,6.961-5.821c0-7.215-8.102-9.493-15.693-13.668c-11.26-5.949-22.145-12.402-22.145-30.498
			c0-12.525,10.377-22.777,27.333-22.777c7.34,0,11.896,2.784,14.047,5.063L439.096,260.425z"/>
		<path fill="#FFFFFF" d="M465.421,337.11c2.152,0,8.1-0.509,8.1-1.266V285.1c0,0-8.1,0.251-8.353-0.381
			c-0.256-0.633,0.124-18.979,0.631-19.485c0.507-0.509,26.826,0.378,34.039,0.378c12.275,0,36.698,0.254,36.698,23.284
			c0,17.845-12.274,23.919-12.274,23.919l12.274,25.055c0,0,7.465-0.252,7.465,0c0,0.256,1.013,15.82,0.633,16.577
			c-0.382,0.76-38.088,0.633-38.344-0.505c-0.251-1.141-0.507-15.692,0.253-15.692s5.821-0.124,5.821-0.757
			s-8.352-18.984-8.729-18.984c-0.383,0-9.239,1.014-9.618,1.014c-0.381,0-0.633,17.971,0.379,17.971
			c1.013,0,5.441,0.38,5.441,0.506c0,0.127,0.38,15.691,0,16.071c-0.379,0.382-33.786-0.38-33.786-0.38
			C466.054,354.065,463.27,337.11,465.421,337.11z M494.397,300.539c0.76-0.38,16.199,1.898,16.199-9.745
			c0-7.592-16.072-5.567-16.072-5.567S494.397,300.79,494.397,300.539z"/>
		<path fill="#FFFFFF" d="M629.463,309.143c0,24.046-12.402,47.201-41.001,47.201c-25.435,0-43.53-13.921-43.53-47.452
			c0-33.536,19.615-45.556,43.404-45.556C612.124,263.335,629.463,279.912,629.463,309.143z M571.126,310.153
			c0,14.807,9.112,20.883,17.081,20.883c7.847,0,14.809-5.189,14.809-21.01c0-13.032-4.302-23.155-14.934-23.155
			C575.428,286.871,571.126,296.616,571.126,310.153z"/>
		<path fill="#FFFFFF" d="M705.846,267.763c0.883,0.632-0.631,31.511-0.631,31.511l-20.375,2.53c0,0-2.531-13.034-13.92-13.034
			c-6.581,0-12.148,6.961-12.148,21.005c0,14.933,8.983,20.12,15.313,20.12c8.095,0,14.168-6.834,15.437-8.604
			c5.695,5.947,16.575,15.69,16.575,15.69s-7.969,18.73-32.012,18.73c-19.743,0-41.255-15.311-41.255-45.937
			c0-32.015,19.109-43.785,36.824-43.785c9.618,0,14.931,5.316,14.931,5.316l1.392-7.467
			C685.977,264.095,700.404,264.347,705.846,267.763z"/>
		<path fill="#FFFFFF" d="M711.112,336.728c0.634,0,9.111-0.63,9.111-0.63l-0.254-52.264c0,0-9.869-0.757-9.997-1.013
			c-0.126-0.253,0.383-16.197,0.505-16.575c0.129-0.381,33.663-1.772,34.295-1.267c0.634,0.504,0.38,18.097,0.125,18.474
			c-0.254,0.381-5.312,2.152-5.312,2.152v13.036c0,0,18.347-16.198,18.347-16.96c0-0.759-5.19-0.377-5.567-1.01
			c-0.254-0.634-1.14-15.059-1.14-15.692s37.076-0.506,37.076,0.253c0,0.758,0.381,16.197,0,16.829
			c-0.38,0.632-6.075,1.011-6.455,1.265c-0.377,0.253-17.336,16.45-17.842,17.336c-0.505,1.013,18.981,35.302,19.612,35.558
			c0.635,0.256,7.467,0.759,7.593,0.887c0.129,0.123,1.143,15.815,0.76,16.069c-0.38,0.255-37.331,2.153-37.962,0.507
			c-0.634-1.771-1.771-16.574-1.52-16.574c0.38,0,7.718,0.759,7.718,0.381c0-0.379-11.134-23.286-11.894-23.791
			c-0.761-0.506-7.973,6.961-8.479,7.593c-0.509,0.633,0.38,14.047,0.38,14.807c0,0.632,7.847,1.392,7.847,1.646
			c0,0.251-0.509,15.31-0.509,15.942s-35.682,0.633-35.682,0.633C711.746,354.065,710.478,336.728,711.112,336.728z"/>
	</g>
	<g>
		<path fill="#FFFFFF" d="M146.895,309.143c0,24.046-12.4,47.201-40.999,47.201c-25.434,0-43.531-13.921-43.531-47.452
			c0-33.536,19.614-45.556,43.406-45.556C129.56,263.335,146.895,279.912,146.895,309.143z M88.561,310.153
			c0,14.807,9.111,20.883,17.083,20.883c7.845,0,14.804-5.189,14.804-21.01c0-13.032-4.303-23.155-14.931-23.155
			C92.863,286.871,88.561,296.616,88.561,310.153z"/>
		<path fill="#FFFFFF" d="M193.011,265.612c0,0.128,0.884,18.477,0.127,18.729c-0.758,0.253-10.376,1.391-10.376,1.391
			c-1.265,9.11-2.024,49.099-1.899,49.099c0.128,0,12.908-0.255,13.034-0.507c0.127-0.256,4.302-15.82,4.302-16.323
			c0-0.507,16.451,1.897,16.829,2.149c0.383,0.253,0.761,34.168,0.383,34.168c-0.383,0-66.436,1.139-66.436-0.252
			s-0.507-18.221-0.253-18.477c0.255-0.253,8.478-0.379,8.731-0.633c0.252-0.252,0.505-38.342,1.266-50.363
			c0-0.633-7.594,0.127-7.845,0c-0.253-0.127-1.647-19.108-0.381-19.867C151.253,264.347,193.011,265.486,193.011,265.612z"/>
		<path fill="#FFFFFF" d="M279.443,269.028c0.506-2.655,0.886-7.464,1.013-7.464c0.253,0,19.867,3.164,20.122,3.543
			c0.251,0.378-2.278,30.875-2.278,30.875l-21.513,1.771c-0.886-3.669-3.291-12.021-13.919-12.021
			c-11.517,0-18.096,12.909-18.224,25.815c-0.123,11.391,7.215,23.79,19.615,23.79c8.606,0,9.746-7.973,9.746-7.973l-10.632,0.128
			c-2.405-2.533-1.518-17.718-1.518-17.718c4.302-1.517,41.505,1.393,41.505,1.393c2.025,9.112,3.67,39.479,3.67,42.897
			c0,0.508-20.372,1.391-20.372,1.391l-1.266-8.604c-3.039,4.177-12.023,11.134-22.777,11.134c-27.84,0-44.038-17.463-44.417-46.314
			c-0.38-34.924,22.903-47.705,44.164-47.833C270.589,263.84,276.029,266.246,279.443,269.028z"/>
		<path fill="#FFFFFF" d="M312.816,355.584c-1.77-3.796-1.77-18.222-1.77-18.222l8.352-2.023
			c5.567-31.255,15.69-69.853,15.69-69.853c4.556-1.768,25.688,0.763,25.688,0.763l24.675,69.723h7.341v18.603
			c0,0-34.04,1.647-35.433,0.884c-1.265-0.884-2.531-17.844-1.771-18.096c0.76-0.381,6.453-0.381,6.453-0.381l-3.415-10.248
			l-17.083-0.254l-1.645,8.353l8.605,1.14c0,0,1.391,17.844,1.012,17.844L312.816,355.584z M348.628,293.83l-4.935,17.085
			l11.262-0.633L348.628,293.83z"/>
		<path fill="#FFFFFF" d="M439.096,260.425c0,0,13.161-0.507,19.361,2.149c0.632,0.254-1.521,24.675-1.521,28.726
			c0,1.897-19.739,1.771-19.739,1.264c-0.633-7.338-4.938-10.12-8.859-10.12c-2.279,0-6.961,1.135-6.961,6.198
			c0,4.555,9.49,7.34,18.857,12.907c11.263,6.58,20.75,13.286,20.75,28.852c0,14.301-12.399,25.056-25.054,25.056
			c-13.034,0-17.717-4.934-19.615-7.088c-0.253,2.787-0.506,7.85-0.633,7.85c-0.631-0.256-19.108-1.143-19.108-1.143
			c-0.251-2.783-0.251-25.561-0.251-32.141c8.604-1.897,17.334-2.277,19.866-1.897c2.277,8.606,7.464,13.162,11.517,13.162
			c3.67,0,6.961-2.026,6.961-5.821c0-7.215-8.102-9.493-15.693-13.668c-11.26-5.949-22.145-12.402-22.145-30.498
			c0-12.525,10.377-22.777,27.333-22.777c7.34,0,11.896,2.784,14.047,5.063L439.096,260.425z"/>
		<path fill="#FFFFFF" d="M465.421,337.11c2.152,0,8.1-0.509,8.1-1.266V285.1c0,0-8.1,0.251-8.353-0.381
			c-0.256-0.633,0.124-18.979,0.631-19.485c0.507-0.509,26.826,0.378,34.039,0.378c12.275,0,36.698,0.254,36.698,23.284
			c0,17.845-12.274,23.919-12.274,23.919l12.274,25.055c0,0,7.465-0.252,7.465,0c0,0.256,1.013,15.82,0.633,16.577
			c-0.382,0.76-38.088,0.633-38.344-0.505c-0.251-1.141-0.507-15.692,0.253-15.692s5.821-0.124,5.821-0.757
			s-8.352-18.984-8.729-18.984c-0.383,0-9.239,1.014-9.618,1.014c-0.381,0-0.633,17.971,0.379,17.971
			c1.013,0,5.441,0.38,5.441,0.506c0,0.127,0.38,15.691,0,16.071c-0.379,0.382-33.786-0.38-33.786-0.38
			C466.054,354.065,463.27,337.11,465.421,337.11z M494.397,300.539c0.76-0.38,16.199,1.898,16.199-9.745
			c0-7.592-16.072-5.567-16.072-5.567S494.397,300.79,494.397,300.539z"/>
		<path fill="#FFFFFF" d="M629.463,309.143c0,24.046-12.402,47.201-41.001,47.201c-25.435,0-43.53-13.921-43.53-47.452
			c0-33.536,19.615-45.556,43.404-45.556C612.124,263.335,629.463,279.912,629.463,309.143z M571.126,310.153
			c0,14.807,9.112,20.883,17.081,20.883c7.847,0,14.809-5.189,14.809-21.01c0-13.032-4.302-23.155-14.934-23.155
			C575.428,286.871,571.126,296.616,571.126,310.153z"/>
		<path fill="#FFFFFF" d="M705.846,267.763c0.883,0.632-0.631,31.511-0.631,31.511l-20.375,2.53c0,0-2.531-13.034-13.92-13.034
			c-6.581,0-12.148,6.961-12.148,21.005c0,14.933,8.983,20.12,15.313,20.12c8.095,0,14.168-6.834,15.437-8.604
			c5.695,5.947,16.575,15.69,16.575,15.69s-7.969,18.73-32.012,18.73c-19.743,0-41.255-15.311-41.255-45.937
			c0-32.015,19.109-43.785,36.824-43.785c9.618,0,14.931,5.316,14.931,5.316l1.392-7.467
			C685.977,264.095,700.404,264.347,705.846,267.763z"/>
		<path fill="#FFFFFF" d="M711.112,336.728c0.634,0,9.111-0.63,9.111-0.63l-0.254-52.264c0,0-9.869-0.757-9.997-1.013
			c-0.126-0.253,0.383-16.197,0.505-16.575c0.129-0.381,33.663-1.772,34.295-1.267c0.634,0.504,0.38,18.097,0.125,18.474
			c-0.254,0.381-5.312,2.152-5.312,2.152v13.036c0,0,18.347-16.198,18.347-16.96c0-0.759-5.19-0.377-5.567-1.01
			c-0.254-0.634-1.14-15.059-1.14-15.692s37.076-0.506,37.076,0.253c0,0.758,0.381,16.197,0,16.829
			c-0.38,0.632-6.075,1.011-6.455,1.265c-0.377,0.253-17.336,16.45-17.842,17.336c-0.505,1.013,18.981,35.302,19.612,35.558
			c0.635,0.256,7.467,0.759,7.593,0.887c0.129,0.123,1.143,15.815,0.76,16.069c-0.38,0.255-37.331,2.153-37.962,0.507
			c-0.634-1.771-1.771-16.574-1.52-16.574c0.38,0,7.718,0.759,7.718,0.381c0-0.379-11.134-23.286-11.894-23.791
			c-0.761-0.506-7.973,6.961-8.479,7.593c-0.509,0.633,0.38,14.047,0.38,14.807c0,0.632,7.847,1.392,7.847,1.646
			c0,0.251-0.509,15.31-0.509,15.942s-35.682,0.633-35.682,0.633C711.746,354.065,710.478,336.728,711.112,336.728z"/>
	</g>
	<g>
		<path fill="#FFFFFF" d="M146.895,309.143c0,24.046-12.4,47.201-40.999,47.201c-25.434,0-43.531-13.921-43.531-47.452
			c0-33.536,19.614-45.556,43.406-45.556C129.56,263.335,146.895,279.912,146.895,309.143z M88.561,310.153
			c0,14.807,9.111,20.883,17.083,20.883c7.845,0,14.804-5.189,14.804-21.01c0-13.032-4.303-23.155-14.931-23.155
			C92.863,286.871,88.561,296.616,88.561,310.153z"/>
		<path fill="#FFFFFF" d="M193.011,265.612c0,0.128,0.884,18.477,0.127,18.729c-0.758,0.253-10.376,1.391-10.376,1.391
			c-1.265,9.11-2.024,49.099-1.899,49.099c0.128,0,12.908-0.255,13.034-0.507c0.127-0.256,4.302-15.82,4.302-16.323
			c0-0.507,16.451,1.897,16.829,2.149c0.383,0.253,0.761,34.168,0.383,34.168c-0.383,0-66.436,1.139-66.436-0.252
			s-0.507-18.221-0.253-18.477c0.255-0.253,8.478-0.379,8.731-0.633c0.252-0.252,0.505-38.342,1.266-50.363
			c0-0.633-7.594,0.127-7.845,0c-0.253-0.127-1.647-19.108-0.381-19.867C151.253,264.347,193.011,265.486,193.011,265.612z"/>
		<path fill="#FFFFFF" d="M279.443,269.028c0.506-2.655,0.886-7.464,1.013-7.464c0.253,0,19.867,3.164,20.122,3.543
			c0.251,0.378-2.278,30.875-2.278,30.875l-21.513,1.771c-0.886-3.669-3.291-12.021-13.919-12.021
			c-11.517,0-18.096,12.909-18.224,25.815c-0.123,11.391,7.215,23.79,19.615,23.79c8.606,0,9.746-7.973,9.746-7.973l-10.632,0.128
			c-2.405-2.533-1.518-17.718-1.518-17.718c4.302-1.517,41.505,1.393,41.505,1.393c2.025,9.112,3.67,39.479,3.67,42.897
			c0,0.508-20.372,1.391-20.372,1.391l-1.266-8.604c-3.039,4.177-12.023,11.134-22.777,11.134c-27.84,0-44.038-17.463-44.417-46.314
			c-0.38-34.924,22.903-47.705,44.164-47.833C270.589,263.84,276.029,266.246,279.443,269.028z"/>
		<path fill="#FFFFFF" d="M312.816,355.584c-1.77-3.796-1.77-18.222-1.77-18.222l8.352-2.023
			c5.567-31.255,15.69-69.853,15.69-69.853c4.556-1.768,25.688,0.763,25.688,0.763l24.675,69.723h7.341v18.603
			c0,0-34.04,1.647-35.433,0.884c-1.265-0.884-2.531-17.844-1.771-18.096c0.76-0.381,6.453-0.381,6.453-0.381l-3.415-10.248
			l-17.083-0.254l-1.645,8.353l8.605,1.14c0,0,1.391,17.844,1.012,17.844L312.816,355.584z M348.628,293.83l-4.935,17.085
			l11.262-0.633L348.628,293.83z"/>
		<path fill="#FFFFFF" d="M439.096,260.425c0,0,13.161-0.507,19.361,2.149c0.632,0.254-1.521,24.675-1.521,28.726
			c0,1.897-19.739,1.771-19.739,1.264c-0.633-7.338-4.938-10.12-8.859-10.12c-2.279,0-6.961,1.135-6.961,6.198
			c0,4.555,9.49,7.34,18.857,12.907c11.263,6.58,20.75,13.286,20.75,28.852c0,14.301-12.399,25.056-25.054,25.056
			c-13.034,0-17.717-4.934-19.615-7.088c-0.253,2.787-0.506,7.85-0.633,7.85c-0.631-0.256-19.108-1.143-19.108-1.143
			c-0.251-2.783-0.251-25.561-0.251-32.141c8.604-1.897,17.334-2.277,19.866-1.897c2.277,8.606,7.464,13.162,11.517,13.162
			c3.67,0,6.961-2.026,6.961-5.821c0-7.215-8.102-9.493-15.693-13.668c-11.26-5.949-22.145-12.402-22.145-30.498
			c0-12.525,10.377-22.777,27.333-22.777c7.34,0,11.896,2.784,14.047,5.063L439.096,260.425z"/>
		<path fill="#FFFFFF" d="M465.421,337.11c2.152,0,8.1-0.509,8.1-1.266V285.1c0,0-8.1,0.251-8.353-0.381
			c-0.256-0.633,0.124-18.979,0.631-19.485c0.507-0.509,26.826,0.378,34.039,0.378c12.275,0,36.698,0.254,36.698,23.284
			c0,17.845-12.274,23.919-12.274,23.919l12.274,25.055c0,0,7.465-0.252,7.465,0c0,0.256,1.013,15.82,0.633,16.577
			c-0.382,0.76-38.088,0.633-38.344-0.505c-0.251-1.141-0.507-15.692,0.253-15.692s5.821-0.124,5.821-0.757
			s-8.352-18.984-8.729-18.984c-0.383,0-9.239,1.014-9.618,1.014c-0.381,0-0.633,17.971,0.379,17.971
			c1.013,0,5.441,0.38,5.441,0.506c0,0.127,0.38,15.691,0,16.071c-0.379,0.382-33.786-0.38-33.786-0.38
			C466.054,354.065,463.27,337.11,465.421,337.11z M494.397,300.539c0.76-0.38,16.199,1.898,16.199-9.745
			c0-7.592-16.072-5.567-16.072-5.567S494.397,300.79,494.397,300.539z"/>
		<path fill="#FFFFFF" d="M629.463,309.143c0,24.046-12.402,47.201-41.001,47.201c-25.435,0-43.53-13.921-43.53-47.452
			c0-33.536,19.615-45.556,43.404-45.556C612.124,263.335,629.463,279.912,629.463,309.143z M571.126,310.153
			c0,14.807,9.112,20.883,17.081,20.883c7.847,0,14.809-5.189,14.809-21.01c0-13.032-4.302-23.155-14.934-23.155
			C575.428,286.871,571.126,296.616,571.126,310.153z"/>
		<path fill="#FFFFFF" d="M705.846,267.763c0.883,0.632-0.631,31.511-0.631,31.511l-20.375,2.53c0,0-2.531-13.034-13.92-13.034
			c-6.581,0-12.148,6.961-12.148,21.005c0,14.933,8.983,20.12,15.313,20.12c8.095,0,14.168-6.834,15.437-8.604
			c5.695,5.947,16.575,15.69,16.575,15.69s-7.969,18.73-32.012,18.73c-19.743,0-41.255-15.311-41.255-45.937
			c0-32.015,19.109-43.785,36.824-43.785c9.618,0,14.931,5.316,14.931,5.316l1.392-7.467
			C685.977,264.095,700.404,264.347,705.846,267.763z"/>
		<path fill="#FFFFFF" d="M711.112,336.728c0.634,0,9.111-0.63,9.111-0.63l-0.254-52.264c0,0-9.869-0.757-9.997-1.013
			c-0.126-0.253,0.383-16.197,0.505-16.575c0.129-0.381,33.663-1.772,34.295-1.267c0.634,0.504,0.38,18.097,0.125,18.474
			c-0.254,0.381-5.312,2.152-5.312,2.152v13.036c0,0,18.347-16.198,18.347-16.96c0-0.759-5.19-0.377-5.567-1.01
			c-0.254-0.634-1.14-15.059-1.14-15.692s37.076-0.506,37.076,0.253c0,0.758,0.381,16.197,0,16.829
			c-0.38,0.632-6.075,1.011-6.455,1.265c-0.377,0.253-17.336,16.45-17.842,17.336c-0.505,1.013,18.981,35.302,19.612,35.558
			c0.635,0.256,7.467,0.759,7.593,0.887c0.129,0.123,1.143,15.815,0.76,16.069c-0.38,0.255-37.331,2.153-37.962,0.507
			c-0.634-1.771-1.771-16.574-1.52-16.574c0.38,0,7.718,0.759,7.718,0.381c0-0.379-11.134-23.286-11.894-23.791
			c-0.761-0.506-7.973,6.961-8.479,7.593c-0.509,0.633,0.38,14.047,0.38,14.807c0,0.632,7.847,1.392,7.847,1.646
			c0,0.251-0.509,15.31-0.509,15.942s-35.682,0.633-35.682,0.633C711.746,354.065,710.478,336.728,711.112,336.728z"/>
	</g>
</g>
</svg>
